<svg width="201" height="54" viewBox="0 0 201 54" fill="none" xmlns="http://www.w3.org/2000/svg">
<path d="M22.7565 19.5437C22.7989 18.0701 22.3484 16.941 21.4048 16.1565C20.4719 15.372 19.1308 14.9797 17.3815 14.9797C16.1517 14.9797 15.065 15.1652 14.1215 15.5363C13.1885 15.8968 12.4358 16.4003 11.8633 17.047C11.2908 17.6831 10.9357 18.4094 10.7978 19.2257C10.6812 19.8936 10.7395 20.4767 10.9728 20.975C11.206 21.4733 11.5612 21.8973 12.0382 22.2472C12.5259 22.597 13.0772 22.8886 13.6921 23.1218C14.3176 23.3551 14.9537 23.5512 15.6004 23.7102L18.5265 24.4735C19.6927 24.7598 20.8058 25.1467 21.866 25.6344C22.9262 26.1115 23.8432 26.7264 24.6171 27.4791C25.4017 28.2212 25.9742 29.1171 26.3346 30.1666C26.6951 31.2162 26.7534 32.446 26.5095 33.856C26.1915 35.7643 25.4229 37.4447 24.2037 38.8971C22.9951 40.339 21.4048 41.4681 19.4329 42.2844C17.4716 43.0901 15.1869 43.493 12.5789 43.493C10.0557 43.493 7.92477 43.1007 6.18609 42.3162C4.44741 41.5211 3.17521 40.3708 2.36948 38.8653C1.57435 37.3599 1.31991 35.5311 1.60616 33.379H7.41059C7.29397 34.5133 7.4795 35.4569 7.96718 36.2096C8.46546 36.9623 9.18107 37.5242 10.114 37.8953C11.047 38.2663 12.1283 38.4519 13.3581 38.4519C14.6409 38.4519 15.8018 38.261 16.8408 37.8794C17.8798 37.4871 18.7279 36.9464 19.3852 36.2573C20.0531 35.5576 20.4613 34.7413 20.6097 33.8083C20.7581 32.9708 20.6362 32.2711 20.2439 31.7092C19.8517 31.1473 19.2421 30.6808 18.4151 30.3098C17.5988 29.9281 16.6235 29.5889 15.4891 29.292L11.9587 28.3379C9.40371 27.6381 7.46359 26.5886 6.13838 25.1891C4.82377 23.7897 4.3573 21.9238 4.73896 19.5915C5.05701 17.6619 5.85744 15.9816 7.14024 14.5503C8.42305 13.1085 10.0292 11.99 11.9587 11.1949C13.8882 10.3892 15.998 9.98632 18.2879 9.98632C20.5991 9.98632 22.5551 10.3892 24.156 11.1949C25.7674 12.0006 26.9442 13.1244 27.6863 14.5662C28.4391 15.9975 28.6882 17.6566 28.4338 19.5437H22.7565ZM41.5653 10.4316L36.1584 43H30.2586L35.6654 10.4316H41.5653ZM42.5473 43L47.9541 10.4316H60.1673C62.6693 10.4316 64.6942 10.8981 66.2421 11.831C67.7899 12.7534 68.866 14.0309 69.4703 15.6635C70.0746 17.2856 70.2018 19.1356 69.8519 21.2135C69.5127 23.302 68.7653 25.1573 67.6097 26.7794C66.4647 28.4015 64.9539 29.679 63.0774 30.6119C61.2009 31.5343 59.0064 31.9954 56.4938 31.9954H48.3994L49.2104 27.1452H56.5097C57.9727 27.1452 59.2131 26.8907 60.2309 26.3818C61.2593 25.873 62.0703 25.1732 62.664 24.2827C63.2577 23.3922 63.6499 22.3691 63.8408 21.2135C64.021 20.0579 63.9627 19.0402 63.6658 18.1602C63.369 17.2803 62.7912 16.5965 61.9325 16.1088C61.0843 15.6105 59.9234 15.3614 58.4498 15.3614H53.0429L48.4471 43H42.5473ZM82.6296 10.4316L77.2228 43H71.3229L76.7298 10.4316H82.6296Z" fill="#00CF15"/>
<path d="M143.436 43H137.138L154.011 10.4316H161.294L167.369 43H161.071L156.698 17.1107H156.444L143.436 43ZM145.757 30.2303H162.932L162.137 34.9692H144.962L145.757 30.2303ZM171.659 43L177.065 10.4316H189.279C191.781 10.4316 193.811 10.8663 195.369 11.7356C196.928 12.6049 198.014 13.8241 198.629 15.3932C199.244 16.9516 199.377 18.7698 199.027 20.8478C198.688 22.9257 197.946 24.7333 196.801 26.2705C195.666 27.7972 194.166 28.9793 192.3 29.8168C190.445 30.6543 188.266 31.0731 185.764 31.0731H177.065L177.892 26.1751H185.812C187.275 26.1751 188.505 25.9737 189.501 25.5708C190.498 25.1573 191.282 24.5583 191.855 23.7738C192.438 22.9787 192.825 22.0033 193.016 20.8478C193.196 19.6922 193.127 18.7062 192.809 17.8899C192.502 17.0629 191.913 16.4374 191.044 16.0134C190.185 15.5787 189.024 15.3614 187.561 15.3614H182.154L177.558 43H171.659ZM190.933 28.2424L196.546 43H189.962L184.492 28.2424H190.933Z" fill="#2602FF"/>
<path d="M97.9874 3.73181L142.289 27.62L89.5631 51.5082L97.9874 3.73181Z" fill="#2602FF"/>
<path d="M89.8758 7.40692L127.361 27.62L82.7475 47.8331L89.8758 7.40692Z" fill="#00CF15"/>
</svg>
